<svg width="24" height="24" viewBox="0 0 24 24" fill="none" xmlns="http://www.w3.org/2000/svg">
<path d="M12.54 9.80334C12.0199 9.90749 11.5624 10.214 11.2683 10.6554C10.9742 11.0968 10.8675 11.637 10.9716 12.1571C11.0758 12.6772 11.3823 13.1347 11.8237 13.4288C12.2651 13.7229 12.8053 13.8296 13.3254 13.7255C14.3656 13.5172 15.2805 12.9042 15.8687 12.0213C16.457 11.1385 16.6704 10.0581 16.4621 9.0179C16.2538 7.97769 15.6408 7.06283 14.7579 6.47459C13.8751 5.88634 12.7947 5.6729 11.7545 5.88121C10.1942 6.19368 8.82192 7.11318 7.93956 8.43743C7.05719 9.76169 6.73702 11.3822 7.04949 12.9426C7.36195 14.5029 8.28146 15.8752 9.60572 16.7575C10.93 17.6399 12.5505 17.9601 14.1108 17.6476C16.1913 17.231 18.021 16.005 19.1975 14.2393C20.374 12.4736 20.8008 10.3129 20.3842 8.23247C19.9676 6.15204 18.7416 4.32233 16.9759 3.14584C15.2102 1.96935 13.0495 1.54246 10.9691 1.95908C8.36856 2.47986 6.08142 4.01236 4.61081 6.21946C3.1402 8.42656 2.60659 11.1275 3.12736 13.728C3.64814 16.3285 5.18064 18.6157 7.38774 20.0863C9.59484 21.5569 12.2957 22.0905 14.8963 21.5697C17.4527 21.0615 19.7723 19.7302 21.5005 17.7791C21.692 17.5845 21.8416 17.3527 21.9402 17.0981C22.0387 16.8435 22.084 16.5714 22.0734 16.2986C22.0628 16.0257 21.9964 15.758 21.8784 15.5118C21.7603 15.2656 21.5931 15.0462 21.3871 14.867C21.181 14.6879 20.9405 14.5529 20.6803 14.4702C20.4201 14.3876 20.1457 14.3591 19.874 14.3865C19.6024 14.4139 19.3392 14.4967 19.1008 14.6297C18.8623 14.7627 18.6536 14.9431 18.4875 15.1598" stroke="#F59E0B" stroke-width="2" stroke-linecap="round" stroke-linejoin="round"/>
</svg>
